HIERARCHY
ROOT Hips
{
  OFFSET 0.000000 0.000000 0.000000
  CHANNELS 6 Xposition Yposition Zposition Xrotation Yrotation Zrotation
  JOINT Spine
  {
    OFFSET 0.294439 -23.041931 -5.594416
    CHANNELS 3 Xrotation Yrotation Zrotation
    JOINT Chest
    {
      OFFSET 0.294439 -23.041931 -5.594416
      CHANNELS 3 Xrotation Yrotation Zrotation
      JOINT Neck
      {
        OFFSET 5.598770 -15.748586 -6.569289
        CHANNELS 3 Xrotation Yrotation Zrotation
        JOINT Head
        {
          OFFSET 10.192536 6.624752 5.574205
          CHANNELS 3 Xrotation Yrotation Zrotation
          End Site
          {
            OFFSET 0.0 5.0 2.0
          }
        }
      }
      JOINT LeftShoulder
      {
        OFFSET 13.066933 1.750226 7.926415
        CHANNELS 3 Xrotation Yrotation Zrotation
        JOINT LeftArm
        {
          OFFSET 4.510936 19.460103 -5.383970
          CHANNELS 3 Xrotation Yrotation Zrotation
          JOINT LeftForeArm
          {
            OFFSET 10.499008 -9.065568 -16.183111
            CHANNELS 3 Xrotation Yrotation Zrotation
            JOINT LeftHand
            {
              OFFSET -4.902903 0.000000 0.980581
              CHANNELS 3 Xrotation Yrotation Zrotation
              End Site
              {
                OFFSET -3.0 0.0 2.0
              }
            }
          }
        }
      }
      JOINT RightShoulder
      {
        OFFSET -13.066933 -1.750226 -7.926415
        CHANNELS 3 Xrotation Yrotation Zrotation
        JOINT RightArm
        {
          OFFSET 4.714771 21.313515 -8.453970
          CHANNELS 3 Xrotation Yrotation Zrotation
          JOINT RightForeArm
          {
            OFFSET 17.023383 -8.759746 -12.481490
            CHANNELS 3 Xrotation Yrotation Zrotation
            JOINT RightHand
            {
              OFFSET 4.902903 0.000000 0.980581
              CHANNELS 3 Xrotation Yrotation Zrotation
              End Site
              {
                OFFSET 3.0 0.0 2.0
              }
            }
          }
        }
      }
    }
  }
  JOINT LeftUpLeg
  {
    OFFSET 11.177921 -0.601902 3.295762
    CHANNELS 3 Xrotation Yrotation Zrotation
    JOINT LeftLeg
    {
      OFFSET 9.545786 39.220941 -5.659016
      CHANNELS 3 Xrotation Yrotation Zrotation
      JOINT LeftFoot
      {
        OFFSET 7.367566 31.771946 13.424232
        CHANNELS 3 Xrotation Yrotation Zrotation
        JOINT LeftToeBase
        {
          OFFSET 6.192979 -1.000000 8.000000
          CHANNELS 3 Xrotation Yrotation Zrotation
          End Site
          {
            OFFSET 0.0 -1.0 3.0
          }
        }
      }
    }
  }
  JOINT RightUpLeg
  {
    OFFSET -11.177921 0.601902 -3.295762
    CHANNELS 3 Xrotation Yrotation Zrotation
    JOINT RightLeg
    {
      OFFSET -4.652360 39.225860 3.363092
      CHANNELS 3 Xrotation Yrotation Zrotation
      JOINT RightFoot
      {
        OFFSET -2.698556 26.351875 24.184242
        CHANNELS 3 Xrotation Yrotation Zrotation
        JOINT RightToeBase
        {
          OFFSET -4.745185 -1.000000 8.000000
          CHANNELS 3 Xrotation Yrotation Zrotation
          End Site
          {
            OFFSET 0.0 -1.0 3.0
          }
        }
      }
    }
  }
}
MOTION
Frames: 18
Frame Time: 0.066667
0.000000 0.000000 0.000000 0.000000 0.000000 0.000000 0.000000 0.000000 0.000000 0.000000 0.000000 0.000000 -32.327577 39.446028 -11.864595 0.000000 0.000000 0.000000 0.000000 0.000000 0.000000 0.000000 0.000000 0.000000 -40.303008 -35.754077 140.709093 0.000000 0.000000 0.000000 0.000000 0.000000 0.000000 0.000000 0.000000 0.000000 -3.447854 33.583137 -31.063875 0.000000 0.000000 0.000000 0.000000 0.000000 0.000000 0.000000 0.000000 0.000000 -45.555429 12.748799 33.649674 0.000000 0.000000 0.000000 0.000000 0.000000 0.000000 0.000000 0.000000 0.000000 -51.693650 -15.872768 -27.273044 0.000000 0.000000 0.000000
0.000000 0.000000 0.000000 0.115946 0.587824 -0.290398 -1.878771 0.351679 -1.665216 2.580602 4.724759 -5.537311 -39.487285 44.840230 -11.271331 0.000000 0.000000 0.000000 -3.049087 -1.578829 -7.567633 34.769509 25.326053 12.749541 14.212054 -61.952031 -30.650414 0.000000 0.000000 0.000000 -1.343119 -2.535068 -6.982651 -0.327039 -5.762422 3.891533 -3.002155 33.308630 -27.909875 0.000000 0.000000 0.000000 -2.456219 0.533909 -0.393372 3.295391 -0.793421 0.042867 -45.087451 12.905652 33.314796 0.000000 0.000000 0.000000 -0.872243 -0.123457 0.257489 -2.287058 -0.391081 0.182755 -50.354292 -14.568178 -26.860375 0.000000 0.000000 0.000000
0.000000 0.000000 0.000000 0.246973 1.935046 -0.509412 -0.761872 0.705044 -3.030020 2.307795 9.529753 -6.591897 -46.291428 49.565103 -11.534957 0.000000 0.000000 0.000000 -10.913011 -1.031803 -9.547942 54.501145 48.572257 22.447174 4.665891 -43.892990 -20.914915 0.000000 0.000000 0.000000 -2.463377 -4.414786 -11.977786 5.046152 -7.066966 12.145094 -0.735536 34.217104 -6.396338 0.000000 0.000000 0.000000 -3.811757 0.749344 -1.017590 6.632587 -1.741000 0.328028 -44.263660 13.527017 32.708981 0.000000 0.000000 0.000000 -1.456991 -0.293438 1.663087 -3.196988 -0.727745 0.471126 -47.248213 -18.464279 -24.568729 0.000000 0.000000 0.000000
0.000000 0.000000 0.000000 0.466167 3.291936 -1.071494 1.284122 0.841833 -3.238687 1.130286 15.613839 -6.663282 -50.515255 51.654167 -15.109649 0.000000 0.000000 0.000000 -19.121293 5.095942 0.851254 53.526552 69.713864 18.874911 0.895300 -41.851772 -4.531276 0.000000 0.000000 0.000000 -6.124536 -3.524077 -10.809342 5.331336 -6.356079 11.917570 -1.229534 34.375653 -10.522160 0.000000 0.000000 0.000000 -4.124885 -0.005471 -5.596712 14.133846 -1.291450 -3.769067 -38.869164 22.210504 28.721624 0.000000 0.000000 0.000000 -4.271859 -0.779344 5.767346 1.322381 -0.470028 0.646457 -47.730728 -24.129789 -23.670369 0.000000 0.000000 0.000000
0.000000 0.000000 0.000000 0.518508 4.547609 -1.049165 0.823880 0.648705 -2.547226 -0.597448 20.273603 -5.174376 -54.761561 54.409582 -14.342846 0.000000 0.000000 0.000000 -13.914023 11.749971 19.113433 -18.513933 70.703557 -48.645887 -6.856137 -49.199220 23.836080 0.000000 0.000000 0.000000 -1.368988 -2.101383 -5.913855 5.147290 -8.180416 13.225205 -0.256923 25.822680 -8.369271 0.000000 0.000000 0.000000 -2.537503 -0.967597 -9.602954 15.463291 1.234056 -8.568197 -31.799995 31.088493 24.226223 0.000000 0.000000 0.000000 -4.352537 -0.971009 9.771145 5.586345 -2.279081 2.850483 -45.993247 -32.987194 -21.058422 0.000000 0.000000 0.000000
0.000000 0.000000 0.000000 0.513928 4.635926 -1.015333 0.602475 0.352348 -1.387337 -0.174224 18.538895 -5.294373 -53.575831 52.359673 -20.600947 0.000000 0.000000 0.000000 -13.342702 0.486331 -6.673237 24.204972 31.347653 3.703020 -44.794500 -77.728344 59.416020 0.000000 0.000000 0.000000 -2.460225 5.554642 11.543657 17.486825 1.908390 20.124808 -0.588717 36.051092 -4.386618 0.000000 0.000000 0.000000 -0.881214 -1.297637 -10.097996 13.694024 1.724723 -8.937529 -31.127238 31.033988 23.827861 0.000000 0.000000 0.000000 -2.016568 -1.023503 11.675366 9.851673 -5.685517 6.252504 -47.141541 -32.564146 -21.568086 0.000000 0.000000 0.000000
0.000000 0.000000 0.000000 0.271268 1.890305 -0.604375 3.771479 -0.250809 1.077323 4.352274 7.630183 -9.522413 -50.760590 50.504497 -22.068738 0.000000 0.000000 0.000000 28.629572 -6.813820 -61.571005 4.664154 -35.590025 26.679026 131.381361 -18.251983 177.895201 0.000000 0.000000 0.000000 -3.574745 9.598299 19.326707 24.098618 4.880581 25.228324 -0.413487 38.667384 -2.548209 0.000000 0.000000 0.000000 8.241904 -2.667688 -10.284520 13.919748 -0.282385 -5.454765 -34.181745 26.275935 25.670102 0.000000 0.000000 0.000000 4.371453 -0.849446 11.064190 15.107518 -10.102429 10.012045 -52.557849 -27.145227 -25.026125 0.000000 0.000000 0.000000
0.000000 0.000000 0.000000 -0.231032 1.725987 1.153815 3.608810 -0.791834 3.033195 4.436045 6.310044 -9.206302 -49.313796 50.055554 -19.927140 0.000000 0.000000 0.000000 -23.812696 -6.950521 -25.254445 26.085783 7.998753 12.367327 106.979461 -52.166181 -153.270765 0.000000 0.000000 0.000000 -13.137246 11.803081 15.586126 13.010990 -11.498824 25.661377 -0.305469 26.004982 -9.403760 0.000000 0.000000 0.000000 -7.538636 1.092774 -3.552100 6.343464 0.116346 -3.319391 -29.318480 24.705080 22.613928 0.000000 0.000000 0.000000 11.591594 -0.591593 10.504736 12.276600 -11.130184 11.119516 -59.133851 -18.894918 -30.263419 0.000000 0.000000 0.000000
0.000000 0.000000 0.000000 -1.341532 -8.494756 2.468117 -0.744969 -1.566069 6.595869 7.115531 -18.195771 -6.905735 -51.070228 50.392940 -23.646643 0.000000 0.000000 0.000000 -21.798099 4.614002 -1.554936 46.615159 13.047750 22.754101 102.801721 -77.828520 -119.932021 0.000000 0.000000 0.000000 -17.676751 -20.082314 -42.705422 -1.447483 -29.803652 30.777135 0.081614 28.076798 1.549315 0.000000 0.000000 0.000000 0.509092 -0.374092 -1.800861 -0.231369 -0.507886 1.333127 -30.129810 19.277593 23.040557 0.000000 0.000000 0.000000 12.701300 -1.007531 12.756760 -0.110847 -16.830169 18.639794 -54.448332 -2.399227 -31.533774 0.000000 0.000000 0.000000
0.000000 0.000000 0.000000 -2.367569 -15.797630 3.699387 -2.578143 -1.591801 7.112875 8.367267 -24.700763 -7.333878 -45.122728 47.402254 -21.234562 0.000000 0.000000 0.000000 -6.719250 2.509970 2.673223 44.686225 13.700618 21.530492 129.406504 -79.068021 -141.014005 0.000000 0.000000 0.000000 -0.496154 -15.926008 -41.610021 -16.819609 -40.640908 32.226600 -2.020754 35.840480 -15.230115 0.000000 0.000000 0.000000 7.697748 -1.980757 -1.700998 3.010843 -2.830374 4.620255 -30.001590 28.511045 23.113369 0.000000 0.000000 0.000000 12.727478 -1.434812 14.916502 -0.587813 -16.867257 18.783977 -54.155329 -4.273972 -30.991484 0.000000 0.000000 0.000000
0.000000 0.000000 0.000000 -3.281028 -15.723272 5.895191 -2.499103 -1.573442 7.010708 8.168363 -25.002583 -7.008444 -47.493259 48.293980 -24.509805 0.000000 0.000000 0.000000 11.990175 1.152569 22.555229 55.900305 -2.635540 30.109798 61.893241 -55.028919 -118.290727 0.000000 0.000000 0.000000 3.140516 -11.824977 -31.790359 -18.077919 -42.430970 36.173729 -1.062271 28.109806 -19.842799 0.000000 0.000000 0.000000 -6.044854 0.819067 -3.317315 1.246465 -4.325836 9.070478 -31.794083 27.020157 24.191866 0.000000 0.000000 0.000000 8.583029 -1.609719 16.350513 3.963603 -16.216938 17.160426 -55.390866 -11.532667 -30.157771 0.000000 0.000000 0.000000
0.000000 0.000000 0.000000 -2.933908 -12.934354 5.691819 0.699889 -2.391447 9.618795 6.204564 -10.370617 -7.312756 -39.329795 44.657975 -12.043921 0.000000 0.000000 0.000000 10.195017 -11.026112 -50.705313 8.722951 -31.761268 24.605485 155.965248 -16.374480 178.590420 0.000000 0.000000 0.000000 -14.175658 -9.128833 -23.218034 8.719498 -5.328695 15.313043 -2.137154 34.029802 -18.758008 0.000000 0.000000 0.000000 -6.060481 1.079565 -2.029983 11.236115 -6.209707 6.261328 -34.206947 28.086926 25.672344 0.000000 0.000000 0.000000 10.433716 -1.355762 14.644022 8.962590 -9.898982 10.233147 -49.797743 -14.195183 -26.648414 0.000000 0.000000 0.000000
0.000000 0.000000 0.000000 -2.249241 -6.593271 5.462034 0.137637 -1.945098 7.971772 4.532472 -0.898213 -7.148691 -40.003132 45.337860 -9.991099 0.000000 0.000000 0.000000 -28.082608 -7.986472 -27.078842 27.790445 6.742888 13.767298 176.707401 -58.953503 -178.643834 0.000000 0.000000 0.000000 -15.493489 10.936292 12.461650 6.724663 -0.671530 9.284429 -1.454792 30.881737 -17.888129 0.000000 0.000000 0.000000 -12.683787 2.445979 -2.656973 18.819478 -7.689185 4.564858 -38.011549 28.423827 27.985034 0.000000 0.000000 0.000000 2.695232 -1.313934 15.029510 6.892937 -8.915531 9.408358 -47.011734 -16.256126 -24.858988 0.000000 0.000000 0.000000
0.000000 0.000000 0.000000 -1.736527 -1.551148 5.364987 8.266915 -1.555981 5.187504 3.802508 11.900412 -10.160584 -52.656533 52.727484 -16.245701 0.000000 0.000000 0.000000 -23.754094 -12.978774 -37.393696 26.776493 27.852438 6.591867 -129.811655 -80.140780 140.299298 0.000000 0.000000 0.000000 -1.230502 12.123601 26.980476 22.808844 -0.239525 27.264521 -0.061366 34.423535 -0.524367 0.000000 0.000000 0.000000 4.090178 -1.052723 -0.585525 26.727637 -6.911424 -0.129816 -35.517075 30.408144 26.434739 0.000000 0.000000 0.000000 2.522730 -1.428923 16.129157 4.801276 -10.449094 11.084874 -42.280338 -19.271745 -22.084706 0.000000 0.000000 0.000000
0.000000 0.000000 0.000000 -1.787408 -1.460815 5.557945 9.747006 -1.358378 4.435558 4.883929 8.703117 -10.838669 -56.199929 53.405182 -22.438431 0.000000 0.000000 0.000000 -22.019097 -19.986722 -52.410840 -3.701440 -40.295217 29.582627 -178.814903 -26.745413 179.953052 0.000000 0.000000 0.000000 6.082815 11.086949 33.789297 25.474870 -9.879575 37.117694 0.772873 32.053460 8.334606 0.000000 0.000000 0.000000 17.980892 -4.308784 -0.144247 20.410455 -5.690095 0.778343 -34.478993 23.652233 25.877535 0.000000 0.000000 0.000000 3.979333 -1.424564 15.802541 1.921139 -12.275246 13.291014 -40.162101 -15.657016 -21.581900 0.000000 0.000000 0.000000
0.000000 0.000000 0.000000 -1.688749 -2.756423 4.852916 7.170484 -1.164950 4.056405 4.152988 9.432455 -9.831337 -49.777344 50.617008 -18.280363 0.000000 0.000000 0.000000 -13.245318 -12.560703 -39.933947 12.055678 -20.253493 18.035540 -140.441360 -42.912283 171.383292 0.000000 0.000000 0.000000 3.342969 14.844013 38.459382 14.311026 -10.209333 25.957349 -0.110563 30.100559 -1.518519 0.000000 0.000000 0.000000 -8.465372 1.892130 -0.863649 4.280324 -4.323049 6.955810 -31.399534 24.694022 23.926539 0.000000 0.000000 0.000000 -3.743345 -0.882865 8.446196 2.107541 -21.125418 22.835932 -47.707728 -21.990668 -24.098102 0.000000 0.000000 0.000000
0.000000 0.000000 0.000000 -1.629652 -2.999815 4.599127 6.155994 -0.953494 3.438921 3.657400 11.104531 -9.584866 -48.076303 49.568063 -18.473247 0.000000 0.000000 0.000000 -6.701875 -10.567000 -36.855808 14.209963 -12.296081 14.564481 -121.234634 -47.757350 162.946447 0.000000 0.000000 0.000000 1.133319 16.560658 38.983936 13.825524 -7.812109 23.352712 -0.033168 25.205263 -1.343975 0.000000 0.000000 0.000000 -9.934275 2.210259 -1.022117 6.706582 -5.326447 7.392418 -31.833731 25.362056 24.204887 0.000000 0.000000 0.000000 -2.765197 -0.722157 6.494421 6.518254 -24.737100 25.292990 -47.857532 -24.917336 -23.559689 0.000000 0.000000 0.000000
0.000000 0.000000 0.000000 -5.555373 -37.989199 6.227481 -2.939814 -2.226429 10.131049 19.704915 -58.205528 -15.146963 -13.686641 19.640218 -1.492718 0.000000 0.000000 0.000000 49.825094 -1.206177 -53.453000 -24.187510 -53.128915 48.144619 62.804488 -9.929416 158.638913 0.000000 0.000000 0.000000 -4.256930 -25.705202 -62.587346 -10.750397 -35.017307 27.391731 -3.063255 33.853143 -27.065904 0.000000 0.000000 0.000000 26.258149 -5.072689 -12.565112 -3.534422 -2.253756 7.819941 -25.417385 40.423998 20.974750 0.000000 0.000000 0.000000 3.002293 -0.716545 9.609625 -1.079980 -31.661228 35.922222 -55.865772 -21.464149 -27.985199 0.000000 0.000000 0.000000
